<svg width="10" height="10" viewBox="0 0 10 10" fill="none" xmlns="http://www.w3.org/2000/svg">
<path d="M1.05072 10V6.54062H0V5.5042H1.05072V4.4958H0V3.45938H1.05072V0H3.89493L5.30797 3.45938H6.95652V0H8.96739V3.45938H10V4.4958H8.96739V5.5042H10V6.54062H8.96739V10H6.10507L4.6558 6.54062H3.06159V10H1.05072ZM2.98913 3.45938H3.49638L2.97101 2.11485H2.89855L2.98913 3.45938ZM3.06159 5.5042H4.25725L3.8587 4.4958H3.02536L3.06159 5.5042ZM6.15942 5.5042H6.99275L6.95652 4.4958H5.74275L6.15942 5.5042ZM7.01087 7.81513H7.10145L7.02899 6.54062H6.53986L7.01087 7.81513Z" fill="#0466C8"/>
</svg>
